<svg width="21" height="14" viewBox="0 0 21 14" fill="none" xmlns="http://www.w3.org/2000/svg">
<path d="M20.9396 6.7165C20.909 6.64738 20.1679 5.00325 18.5203 3.35562C16.3249 1.16025 13.552 0 10.5 0C7.448 0 4.67512 1.16025 2.47974 3.35562C0.832117 5.00325 0.0874917 6.65 0.0603667 6.7165C0.0205657 6.80602 0 6.9029 0 7.00087C0 7.09885 0.0205657 7.19573 0.0603667 7.28525C0.0909917 7.35437 0.832117 8.99763 2.47974 10.6453C4.67512 12.8398 7.448 14 10.5 14C13.552 14 16.3249 12.8398 18.5203 10.6453C20.1679 8.99763 20.909 7.35437 20.9396 7.28525C20.9794 7.19573 21 7.09885 21 7.00087C21 6.9029 20.9794 6.80602 20.9396 6.7165ZM10.5 12.6C7.80675 12.6 5.45387 11.6209 3.50612 9.69063C2.70693 8.89586 2.02701 7.98958 1.48749 7C2.02686 6.01032 2.7068 5.10403 3.50612 4.30937C5.45387 2.37913 7.80675 1.4 10.5 1.4C13.1933 1.4 15.5461 2.37913 17.4939 4.30937C18.2946 5.10384 18.976 6.01013 19.5169 7C18.886 8.17775 16.1376 12.6 10.5 12.6ZM10.5 2.8C9.66932 2.8 8.85729 3.04633 8.1666 3.50783C7.47592 3.96933 6.93759 4.62528 6.6197 5.39273C6.30181 6.16018 6.21864 7.00466 6.3807 7.81938C6.54276 8.6341 6.94277 9.38247 7.53015 9.96985C8.11753 10.5572 8.8659 10.9572 9.68062 11.1193C10.4953 11.2814 11.3398 11.1982 12.1073 10.8803C12.8747 10.5624 13.5307 10.0241 13.9922 9.3334C14.4537 8.64271 14.7 7.83068 14.7 7C14.6988 5.88645 14.256 4.81883 13.4686 4.03143C12.6812 3.24403 11.6136 2.80116 10.5 2.8ZM10.5 9.8C9.94621 9.8 9.40486 9.63578 8.9444 9.32811C8.48394 9.02045 8.12506 8.58315 7.91314 8.07151C7.70121 7.55988 7.64576 6.99689 7.7538 6.45375C7.86184 5.9106 8.12851 5.41169 8.5201 5.0201C8.91169 4.62851 9.4106 4.36184 9.95375 4.2538C10.4969 4.14576 11.0599 4.20121 11.5715 4.41314C12.0831 4.62506 12.5204 4.98395 12.8281 5.4444C13.1358 5.90486 13.3 6.44621 13.3 7C13.3 7.74261 13.005 8.4548 12.4799 8.9799C11.9548 9.505 11.2426 9.8 10.5 9.8Z" fill="#45A1BE"/>
</svg>
