<svg width="18" height="18" viewBox="0 0 18 18" fill="none" xmlns="http://www.w3.org/2000/svg">
<g clip-path="url(#clip0_7_5074)">
<path d="M17.4881 7.3778C17.5932 7.98186 17.6455 8.59392 17.6445 9.20705C17.6445 11.9453 16.6658 14.2605 14.9625 15.8277H14.9648C13.4753 17.2036 11.4277 18 9 18C6.61305 18 4.32387 17.0518 2.63604 15.364C0.948212 13.6762 0 11.387 0 9.00005C0 6.6131 0.948212 4.32392 2.63604 2.63609C4.32387 0.948261 6.61305 4.94716e-05 9 4.94716e-05C11.2339 -0.0248287 13.3911 0.814343 15.021 2.3423L12.4515 4.9118C11.5225 4.02671 10.283 3.5419 9 3.5618C6.65213 3.5618 4.6575 5.1458 3.9465 7.2788C3.57018 8.3966 3.57018 9.60687 3.9465 10.7247H3.94987C4.66425 12.8543 6.6555 14.4383 9.00338 14.4383C10.2161 14.4383 11.2579 14.1278 12.0656 13.5788H12.0623C12.5314 13.2682 12.9326 12.8657 13.2418 12.3956C13.551 11.9256 13.7617 11.3977 13.8611 10.8439H9V7.37892L17.4881 7.3778Z" fill="#45A1BE"/>
</g>
<defs>
<clipPath id="clip0_7_5074">
<rect width="18" height="18" fill="white"/>
</clipPath>
</defs>
</svg>
