<svg width="106" height="24" viewBox="0 0 106 24" fill="none" xmlns="http://www.w3.org/2000/svg">
<path d="M10.7285 18.6817C10.7285 19.8952 10.2388 20.9065 9.25949 21.7155C8.30145 22.5032 7.15181 22.8971 5.81056 22.8971C3.85191 22.8971 2.41486 22.3116 1.4994 21.1407C0.583948 19.9484 0.126221 18.3411 0.126221 16.3186C0.126221 14.1683 0.605238 12.2629 1.56327 10.6023C2.03165 9.75069 2.70227 9.08006 3.57515 8.5904C4.44802 8.10074 5.46993 7.85591 6.64086 7.85591C8.4079 7.85591 9.65335 8.45202 10.3772 9.64424C10.6753 10.1339 10.8243 10.7087 10.8243 11.3687C10.8243 12.3906 10.3985 13.157 9.5469 13.668C9.20626 13.8596 8.88692 13.9554 8.58886 13.9554C8.3121 13.9554 8.07791 13.9448 7.8863 13.9235C7.71599 13.8809 7.4818 13.7319 7.18374 13.4764C6.88569 13.2209 6.73666 12.8696 6.73666 12.4225C6.75795 12.1884 6.93891 11.9967 7.27955 11.8477C7.59889 11.6561 7.75857 11.3155 7.75857 10.8258C7.75857 9.99552 7.24761 9.58037 6.22571 9.58037C5.97023 9.58037 5.66153 9.69746 5.29961 9.93165C4.95897 10.1445 4.67156 10.432 4.43738 10.7939C4.20319 11.1345 3.97965 11.688 3.76675 12.4545C3.57515 13.1996 3.47934 13.9235 3.47934 14.626C3.47934 15.3073 3.50063 15.8289 3.54321 16.1908C3.60708 16.5314 3.72417 17.0105 3.89449 17.6279C4.0861 18.224 4.42673 18.7136 4.9164 19.0969C5.42735 19.4801 6.05539 19.6717 6.80053 19.6717C7.6947 19.6717 8.48241 19.2991 9.16368 18.554C9.44045 18.2559 9.66399 17.894 9.83431 17.4682C9.91947 17.2979 10.0259 17.2127 10.1537 17.2127C10.3453 17.2127 10.4836 17.3937 10.5688 17.7556C10.6753 18.0962 10.7285 18.4049 10.7285 18.6817Z" fill="#45A1BE"/>
<path d="M15.5468 10.3149C14.9933 10.3362 14.5888 10.3574 14.3333 10.3787C14.0991 10.3787 13.9821 10.3149 13.9821 10.1871C13.9821 10.0594 14.0459 9.93165 14.1737 9.80391C15.5362 8.54782 17.8355 7.91978 21.0715 7.91978C22.1786 7.91978 23.0514 8.01558 23.6901 8.20719L24.0095 8.30299C24.265 8.40944 24.3927 8.52653 24.3927 8.65427C24.3927 8.76072 24.3182 8.84588 24.1692 8.90975C23.5943 9.08006 23.0408 9.35683 22.5086 9.74004C21.9763 10.102 21.7102 10.3574 21.7102 10.5065L21.9018 10.73C22.5831 11.1132 23.1047 11.72 23.4666 12.5503C23.8498 13.3806 24.0627 14.1151 24.1053 14.7538L24.1692 15.7437C24.1692 17.8514 23.5837 19.5865 22.4128 20.9491C21.2418 22.3116 19.6451 22.9929 17.6226 22.9929C16.6007 22.9929 15.7172 22.8119 14.972 22.45C14.2269 22.088 13.6733 21.6835 13.3114 21.2365C12.9708 20.7681 12.694 20.2465 12.4811 19.6717C12.2257 18.884 12.0979 18.0749 12.0979 17.2446C12.0979 16.3931 12.2363 15.5415 12.5131 14.6899C12.8111 13.8383 13.1411 13.2103 13.503 12.8058C13.8862 12.4013 14.312 12.0713 14.7804 11.8158C15.3765 11.4964 15.8555 11.3368 16.2175 11.3368C16.5794 11.3368 16.7604 11.4113 16.7604 11.5603L16.5687 11.8797C16.1004 12.4332 15.7597 13.157 15.5468 14.0512C15.3552 14.9454 15.2594 15.7437 15.2594 16.4463C15.2594 17.1276 15.3446 17.8088 15.5149 18.4901C15.6852 19.1714 15.8768 19.6823 16.0897 20.023C16.3026 20.3423 16.5475 20.5871 16.8242 20.7574C17.2287 21.0129 17.6545 21.1407 18.1016 21.1407C18.5487 21.1407 18.9851 20.9703 19.4109 20.6297C19.8367 20.2678 20.1454 19.7994 20.337 19.2246C20.7202 18.1601 20.9118 17.0637 20.9118 15.9353C20.9118 14.147 20.4541 12.7632 19.5387 11.7839C18.6445 10.8045 17.3139 10.3149 15.5468 10.3149Z" fill="#45A1BE"/>
<path d="M37.1321 8.14332C36.7489 10.4426 36.5572 13.3699 36.5572 16.9253C36.5572 19.5439 36.6637 21.2684 36.8766 22.0987L37.0043 22.5138C37.0043 22.7906 36.7701 22.929 36.3018 22.929C34.6625 22.929 33.7257 22.4713 33.4915 21.5558C33.4702 21.4494 33.417 21.3961 33.3319 21.3961C33.268 21.3961 33.2041 21.4387 33.1403 21.5239C32.4803 22.3968 31.4584 22.8332 30.0745 22.8332C29.3081 22.8332 28.5098 22.6416 27.6795 22.2584C27.1685 22.0242 26.7534 21.6197 26.434 21.0449C26.1147 20.4487 25.955 19.7249 25.955 18.8733L26.434 11.8797C26.434 10.4107 26.285 9.36747 25.9869 8.75007C25.8805 8.51589 25.8273 8.36686 25.8273 8.30299C25.8273 8.17525 25.8805 8.0901 25.9869 8.04752C26.3276 7.94107 26.764 7.88784 27.2962 7.88784C29.3613 7.88784 30.3939 8.73943 30.3939 10.4426C30.3939 10.9748 30.1703 12.1884 29.7233 14.0831C29.2975 15.9779 29.0846 17.3298 29.0846 18.1388C29.0846 18.9265 29.2549 19.5333 29.5955 19.9591C29.9575 20.3849 30.4471 20.5978 31.0645 20.5978C31.7032 20.5978 32.2035 20.3742 32.5654 19.9271C32.9274 19.4801 33.1403 19.033 33.2041 18.5859L33.2999 17.9153C33.3851 17.1701 33.4277 15.8608 33.4277 13.9873C33.4277 12.1138 33.3638 10.9323 33.2361 10.4426C33.1296 9.93165 33.0764 9.6123 33.0764 9.48457C33.0764 8.95232 33.5022 8.53718 34.3538 8.23912C35.2053 7.91978 35.9718 7.7601 36.653 7.7601C36.9724 7.7601 37.1321 7.88784 37.1321 8.14332Z" fill="#45A1BE"/>
<path d="M48.4159 13.7957L48.5437 14.9134C48.5437 15.3179 48.1604 15.5202 47.394 15.5202C45.8399 15.5202 45.0628 14.9347 45.0628 13.7638C45.0628 13.487 45.1373 13.1038 45.2863 12.6141C45.4354 12.1245 45.5099 11.6987 45.5099 11.3368C45.5099 10.9748 45.4034 10.6661 45.1905 10.4107C44.9776 10.1339 44.6689 9.99552 44.2644 9.99552C43.8599 9.99552 43.5087 10.1445 43.2106 10.4426C42.9338 10.7194 42.7635 11.0068 42.6996 11.3048L42.5719 11.7519C42.4442 12.4119 42.3803 13.519 42.3803 15.0731C42.3803 16.606 42.4016 17.8195 42.4442 18.7136C42.4868 19.5865 42.5293 20.1933 42.5719 20.5339C42.6145 20.8532 42.6358 21.0449 42.6358 21.1087C42.6358 21.641 42.3058 22.0668 41.6458 22.3861C40.9858 22.7267 40.3258 22.8971 39.6659 22.8971C39.0059 22.8971 38.6759 22.7587 38.6759 22.4819L38.8356 21.4919C39.1336 19.6397 39.2827 17.2234 39.2827 14.2428C39.2827 11.2623 39.1762 9.23974 38.9633 8.17525C38.9633 7.91978 39.1869 7.79204 39.6339 7.79204C40.7836 7.79204 41.55 8.1859 41.9332 8.97361C41.9545 9.05877 41.9864 9.10135 42.029 9.10135C42.0929 9.10135 42.2419 9.00555 42.4761 8.81394C43.1787 8.23912 44.009 7.95171 44.967 7.95171C45.5631 7.95171 46.1592 8.0688 46.7553 8.30299C47.9688 8.79265 48.5756 9.81456 48.5756 11.3687L48.4159 13.7957Z" fill="#45A1BE"/>
<path d="M60.4702 18.6817C60.4702 19.8952 59.9805 20.9065 59.0012 21.7155C58.0432 22.5032 56.8935 22.8971 55.5523 22.8971C53.5936 22.8971 52.1566 22.3116 51.2411 21.1407C50.3257 19.9484 49.8679 18.3411 49.8679 16.3186C49.8679 14.1683 50.347 12.2629 51.305 10.6023C51.7734 9.75069 52.444 9.08006 53.3169 8.5904C54.1897 8.10074 55.2117 7.85591 56.3826 7.85591C58.1496 7.85591 59.3951 8.45202 60.1189 9.64424C60.417 10.1339 60.566 10.7087 60.566 11.3687C60.566 12.3906 60.1402 13.157 59.2886 13.668C58.948 13.8596 58.6286 13.9554 58.3306 13.9554C58.0538 13.9554 57.8196 13.9448 57.628 13.9235C57.4577 13.8809 57.2235 13.7319 56.9255 13.4764C56.6274 13.2209 56.4784 12.8696 56.4784 12.4225C56.4997 12.1884 56.6806 11.9967 57.0213 11.8477C57.3406 11.6561 57.5003 11.3155 57.5003 10.8258C57.5003 9.99552 56.9893 9.58037 55.9674 9.58037C55.712 9.58037 55.4033 9.69746 55.0413 9.93165C54.7007 10.1445 54.4133 10.432 54.1791 10.7939C53.9449 11.1345 53.7214 11.688 53.5085 12.4545C53.3169 13.1996 53.2211 13.9235 53.2211 14.626C53.2211 15.3073 53.2424 15.8289 53.2849 16.1908C53.3488 16.5314 53.4659 17.0105 53.6362 17.6279C53.8278 18.224 54.1685 18.7136 54.6581 19.0969C55.1691 19.4801 55.7971 19.6717 56.5422 19.6717C57.4364 19.6717 58.2241 19.2991 58.9054 18.554C59.1822 18.2559 59.4057 17.894 59.576 17.4682C59.6612 17.2979 59.7676 17.2127 59.8954 17.2127C60.087 17.2127 60.2254 17.3937 60.3105 17.7556C60.417 18.0962 60.4702 18.4049 60.4702 18.6817Z" fill="#45A1BE"/>
<path d="M65.9667 5.20535L65.9347 8.30299C65.9347 8.43073 65.9773 8.4946 66.0625 8.4946C66.1476 8.4946 66.2328 8.46266 66.3179 8.3988C66.8502 8.03687 67.6911 7.85591 68.8408 7.85591C70.7781 7.85591 72.1194 8.51589 72.8645 9.83585C73.1413 10.3255 73.2797 10.9748 73.2797 11.7839C73.2797 12.5929 73.2264 13.7106 73.12 15.137C73.0348 16.5634 72.9923 17.5746 72.9923 18.1708C72.9923 20.2571 73.2903 21.641 73.8864 22.3222C73.9929 22.4287 74.0461 22.5351 74.0461 22.6416C74.0461 22.8545 73.5884 22.9609 72.6729 22.9609C70.2033 22.9609 68.9685 21.8113 68.9685 19.512C68.9685 18.6178 69.1814 17.3617 69.6072 15.7437C70.033 14.1257 70.2459 12.9335 70.2459 12.1671C70.2459 11.4006 70.0649 10.8152 69.703 10.4107C69.3411 9.98487 68.8408 9.77198 68.2021 9.77198C67.5634 9.77198 67.0524 9.91036 66.6692 10.1871C66.3073 10.4639 66.0838 10.7513 65.9986 11.0494L65.9028 11.4645C65.8815 11.869 65.8709 13.157 65.8709 15.3286C65.8709 17.5001 65.9241 18.9159 66.0305 19.5759C66.137 20.2146 66.1902 20.5765 66.1902 20.6616C66.1902 21.279 65.7751 21.8326 64.9448 22.3222C64.1145 22.7906 63.2948 23.0248 62.4858 23.0248C62.1878 23.0248 62.0387 22.8545 62.0387 22.5138L62.1026 21.9071C62.571 18.3304 62.8052 14.4557 62.8052 10.2829C62.8052 8.66492 62.7413 7.02561 62.6135 5.36502L62.5816 4.66246C62.539 4.06635 62.4113 3.5554 62.1984 3.1296C62.0068 2.70381 61.8258 2.42704 61.6555 2.29931L61.3681 2.13963C61.2191 2.05447 61.1446 1.95867 61.1446 1.85222C61.1446 1.55417 61.6449 1.19224 62.6455 0.766449C63.6461 0.319366 64.4125 0.0958252 64.9448 0.0958252C65.4983 0.0958252 65.7964 0.212918 65.8389 0.447104C65.9241 1.53288 65.9667 3.11896 65.9667 5.20535Z" fill="#45A1BE"/>
<path d="M85.6737 12.7738L85.6099 16.8614C85.6099 19.693 85.9186 21.3961 86.536 21.971C86.6211 22.0561 86.6637 22.1519 86.6637 22.2584C86.6637 22.5777 85.9718 22.7374 84.588 22.7374C83.2254 22.7374 82.5016 22.3329 82.4164 21.5239C82.3951 21.3323 82.3845 20.9384 82.3845 20.3423L82.5122 15.2328C82.5122 15.0837 82.4271 15.0092 82.2568 15.0092C81.2349 15.0092 80.2768 15.2966 79.3827 15.8715C78.4885 16.4463 78.0414 17.1808 78.0414 18.0749C78.0414 18.5433 78.1691 18.9372 78.4246 19.2565C78.6801 19.5759 78.9888 19.7355 79.3507 19.7355C79.7339 19.7355 80.0426 19.661 80.2768 19.512C80.5323 19.363 80.6813 19.2778 80.7239 19.2565C81.0858 19.2991 81.2668 19.6823 81.2668 20.4062C81.2668 21.1087 80.9368 21.6835 80.2768 22.1306C79.6168 22.5564 78.9249 22.7693 78.2011 22.7693C77.4772 22.7693 76.8492 22.6416 76.3169 22.3861C75.806 22.1306 75.4334 21.8432 75.1992 21.5239C74.965 21.2045 74.7734 20.8426 74.6244 20.4381C74.4754 19.9484 74.4009 19.5226 74.4009 19.1607C74.4009 17.6704 74.8692 16.4782 75.806 15.5841C76.7427 14.6899 77.9456 14.0512 79.4146 13.668C81.352 13.2848 82.3632 12.9335 82.4484 12.6141C82.5122 12.38 82.5442 11.9861 82.5442 11.4326C82.5442 10.3042 81.9693 9.74004 80.8197 9.74004C80.33 9.74004 79.8936 9.89972 79.5104 10.2191C79.1272 10.5171 78.9356 10.9003 78.9356 11.3687L79.1272 12.1351C79.0846 12.4971 78.7014 12.71 77.9775 12.7738L77.6263 12.8058C76.9876 12.8058 76.4766 12.6461 76.0934 12.3267C75.7315 12.0074 75.5505 11.5816 75.5505 11.0494C75.5505 10.7087 75.657 10.3362 75.8699 9.93165C76.104 9.50586 76.3914 9.16522 76.7321 8.90975C77.0727 8.65427 77.5943 8.43073 78.2969 8.23912C79.0207 8.02623 79.7126 7.91978 80.3726 7.91978C81.0326 7.91978 81.5436 7.94107 81.9055 7.98365C82.2674 8.02623 82.7571 8.13267 83.3745 8.30299C84.0132 8.45202 84.5348 8.75007 84.9393 9.19716C85.3651 9.64424 85.5886 10.1233 85.6099 10.6342C85.6525 11.1239 85.6737 11.8371 85.6737 12.7738Z" fill="#E2B8E9"/>
<path d="M90.896 5.26921L90.1296 5.23728C89.5548 5.23728 89.1822 5.37566 89.0119 5.65243C88.9693 5.7163 88.9161 5.74823 88.8522 5.74823C88.5755 5.74823 88.4371 5.27986 88.4371 4.34311C88.4371 3.38508 88.5755 2.77832 88.8522 2.52285C89.1503 2.26737 89.6506 2.13963 90.3531 2.13963C91.077 2.13963 91.5667 2.26737 91.8221 2.52285C92.0776 2.75703 92.2053 3.16154 92.2053 3.73636C92.2053 4.31118 92.1095 4.71568 91.9179 4.94987C91.7263 5.16277 91.3857 5.26921 90.896 5.26921ZM88.3413 21.3961L88.6926 13.9554C88.6926 12.1884 88.4903 10.9855 88.0858 10.3468C87.9581 10.1339 87.809 9.97423 87.6387 9.86778C87.511 9.8252 87.4471 9.74004 87.4471 9.61231C87.4471 9.22909 87.99 8.85652 89.0758 8.4946C90.1615 8.13267 90.9493 7.95171 91.4389 7.95171C91.9499 7.95171 92.216 8.07945 92.2373 8.33493C92.2373 8.76072 92.1734 9.97423 92.0457 11.9755C91.9392 13.9554 91.886 16.0418 91.886 18.2346C91.886 20.4275 92.0137 21.79 92.2692 22.3222C92.3331 22.4287 92.365 22.5351 92.365 22.6416C92.365 22.9183 91.9605 23.0567 91.1515 23.0567C90.3425 23.0567 89.5122 22.8438 88.6606 22.418C88.4477 22.3116 88.3413 21.971 88.3413 21.3961Z" fill="#E2B8E9"/>
<path d="M94.3118 22.5777C94.695 20.2784 94.8866 17.5214 94.8866 14.3067C94.8866 11.0919 94.7908 9.00555 94.5992 8.04752C94.5992 7.77075 94.9185 7.63237 95.5572 7.63237C96.5365 7.63237 97.1859 8.00494 97.5052 8.75007C97.5265 8.81394 97.5797 8.84588 97.6649 8.84588C97.7501 8.84588 97.8139 8.82459 97.8565 8.78201C98.5165 8.10074 99.5384 7.7601 100.922 7.7601C102.306 7.7601 103.402 8.11138 104.211 8.81394C105.02 9.5165 105.425 10.5384 105.425 11.8797C105.425 12.6887 105.35 13.8383 105.201 15.3286C105.074 16.8189 105.01 17.9259 105.01 18.6498C105.01 20.3742 105.297 21.6197 105.872 22.3861C105.957 22.4926 106 22.599 106 22.7055C106 22.9822 105.702 23.1206 105.106 23.1206C102.466 23.1206 101.146 21.9497 101.146 19.6078C101.146 18.7136 101.348 17.4682 101.753 15.8715C102.157 14.2747 102.359 13.0612 102.359 12.2309C102.359 10.5278 101.657 9.67618 100.252 9.67618C99.5703 9.67618 99.0487 9.87843 98.6868 10.2829C98.3462 10.6874 98.1546 11.1558 98.112 11.688C98.0694 12.199 98.0481 13.1783 98.0481 14.626C98.0481 16.8401 98.1226 18.7669 98.2717 20.4062L98.3355 21.1087C98.3355 21.7048 97.9417 22.1626 97.1539 22.4819C96.3875 22.8225 95.7169 22.9929 95.1421 22.9929C94.5886 22.9929 94.3118 22.8545 94.3118 22.5777Z" fill="#45A1BE"/>
</svg>
