<svg width="20" height="20" viewBox="0 0 20 20" fill="none" xmlns="http://www.w3.org/2000/svg">
<path d="M15 15.8334H5.00004C4.337 15.8334 3.70111 15.57 3.23227 15.1011C2.76343 14.6323 2.50004 13.9964 2.50004 13.3334V6.6667C2.50004 6.44568 2.41224 6.23372 2.25596 6.07744C2.09968 5.92116 1.88772 5.83336 1.66671 5.83336C1.44569 5.83336 1.23373 5.92116 1.07745 6.07744C0.921171 6.23372 0.833374 6.44568 0.833374 6.6667V13.3334C0.833374 14.4384 1.27236 15.4982 2.05376 16.2796C2.44067 16.6666 2.9 16.9735 3.40553 17.1829C3.91105 17.3923 4.45287 17.5 5.00004 17.5H15C15.2211 17.5 15.433 17.4122 15.5893 17.256C15.7456 17.0997 15.8334 16.8877 15.8334 16.6667C15.8334 16.4457 15.7456 16.2337 15.5893 16.0774C15.433 15.9212 15.2211 15.8334 15 15.8334ZM19.1667 8.28336C19.158 8.20681 19.1413 8.13139 19.1167 8.05836V7.98336C19.0766 7.89768 19.0232 7.81892 18.9584 7.75003V7.75003L13.9584 2.75003C13.8895 2.68521 13.8107 2.63176 13.725 2.5917H13.65L13.3834 2.50003H6.66671C6.00367 2.50003 5.36778 2.76342 4.89894 3.23226C4.4301 3.7011 4.16671 4.33699 4.16671 5.00003V11.6667C4.16671 12.3297 4.4301 12.9656 4.89894 13.4345C5.36778 13.9033 6.00367 14.1667 6.66671 14.1667H16.6667C17.3297 14.1667 17.9656 13.9033 18.4345 13.4345C18.9033 12.9656 19.1667 12.3297 19.1667 11.6667V8.33336C19.1667 8.33336 19.1667 8.33336 19.1667 8.28336ZM14.1667 5.3417L16.325 7.50003H15C14.779 7.50003 14.5671 7.41223 14.4108 7.25595C14.2545 7.09967 14.1667 6.88771 14.1667 6.6667V5.3417ZM17.5 11.6667C17.5 11.8877 17.4122 12.0997 17.256 12.256C17.0997 12.4122 16.8877 12.5 16.6667 12.5H6.66671C6.44569 12.5 6.23373 12.4122 6.07745 12.256C5.92117 12.0997 5.83337 11.8877 5.83337 11.6667V5.00003C5.83337 4.77902 5.92117 4.56706 6.07745 4.41077C6.23373 4.25449 6.44569 4.1667 6.66671 4.1667H12.5V6.6667C12.5 7.32974 12.7634 7.96562 13.2323 8.43446C13.7011 8.90331 14.337 9.1667 15 9.1667H17.5V11.6667Z" fill="#BBC3CF"/>
</svg>
