<svg width="24" height="24" viewBox="0 0 24 24" fill="none" xmlns="http://www.w3.org/2000/svg">
<path d="M22.0005 19.0001C22.0005 19.5305 21.7898 20.0392 21.4147 20.4143C21.0396 20.7893 20.5309 21.0001 20.0005 21.0001H4.00049C3.47006 21.0001 2.96135 20.7893 2.58627 20.4143C2.2112 20.0392 2.00049 19.5305 2.00049 19.0001V5.00006C2.00049 4.46963 2.2112 3.96092 2.58627 3.58585C2.96135 3.21077 3.47006 3.00006 4.00049 3.00006H9.00049L11.0005 6.00006H20.0005C20.5309 6.00006 21.0396 6.21077 21.4147 6.58585C21.7898 6.96092 22.0005 7.46963 22.0005 8.00006V19.0001Z" stroke="white" stroke-width="2" stroke-linecap="round" stroke-linejoin="round"/>
<path d="M12.0005 11.0001V17.0001" stroke="white" stroke-width="2" stroke-linecap="round" stroke-linejoin="round"/>
<path d="M9.00049 14.0001H15.0005" stroke="white" stroke-width="2" stroke-linecap="round" stroke-linejoin="round"/>
</svg>
