<svg width="35" height="35" viewBox="0 0 35 35" fill="none" xmlns="http://www.w3.org/2000/svg">
<path d="M15.3956 3.12545C15.4149 5.10815 14.2318 3.89231 14.2479 5.00595C14.2553 5.51488 14.8832 5.96886 15.223 6.62627C15.6267 7.40728 15.7439 8.40908 15.6141 9.20116C15.5296 9.71639 15.3584 10.235 15.129 10.7089C14.5058 11.9964 13.5128 12.7019 11.9284 12.5763C10.4228 12.457 8.90622 12.4696 7.3961 12.3951C6.85175 12.3682 5.25207 11.832 5.20415 12.1622C5.1332 12.6517 5.41176 12.9958 5.84044 13.128C6.59274 13.3599 7.36766 13.587 8.14894 13.6581C9.65271 13.7946 11.174 13.7631 12.6751 13.9164C13.4696 13.9975 14.2859 14.224 15.0054 14.5564C16.192 15.1047 16.5017 16.0648 16.3824 17.5549C16.2676 18.9899 15.5647 19.9736 14.2712 20.6352C13.9822 20.7831 13.7072 20.9595 13.4402 21.142C12.9874 21.4514 13.0202 21.8126 13.5149 22.0381C13.8029 22.1693 14.0997 22.283 14.3889 22.412C15.729 23.0096 16.6096 24.7144 16.2735 26.0546C16.1053 26.7248 15.2467 27.0171 14.6864 26.6003C13.8295 25.9629 12.9032 25.4665 11.7971 25.3585C10.893 25.2703 10.1238 25.539 9.53828 26.2073C9.42295 26.3389 9.32103 26.5985 9.38235 26.7232C9.45392 26.8687 9.70227 26.9911 9.88985 27.0166C10.2498 27.0652 10.6214 27.0501 10.9876 27.0408C13.3113 26.9818 14.8054 27.9979 15.5943 30.0951C16.5231 32.5639 14.5224 34.5036 12.4612 34.908C11.0349 35.1878 9.81698 34.6996 8.69985 33.9106C7.6508 33.1696 6.79139 32.2524 5.98919 31.2026C6.75728 31.2363 7.46863 31.2311 8.17047 31.3069C9.1193 31.4093 10.0619 31.568 11.0047 31.7169C11.1857 31.7455 11.3625 31.827 11.5288 31.9076C11.9942 32.1333 11.9991 32.4027 11.593 32.7242C11.3588 32.805 11.0524 33.0039 11.2475 33.2076C11.4547 33.4052 11.6111 33.4231 11.8089 33.4766C11.9738 33.5212 12.166 33.505 12.3405 33.48C12.8481 33.4068 13.3325 33.2609 13.5445 32.759C13.7587 32.2517 13.4943 31.8341 13.1797 31.4494C12.3414 30.4243 11.1468 30.1609 9.88069 30.0677C8.09309 29.9362 6.30351 29.8285 4.51776 29.6784C4.1143 29.6445 3.70818 29.5132 3.32899 29.3663C2.3617 28.9914 2.0076 28.1489 2.37558 27.2225C2.9766 27.3854 3.56606 27.6007 4.17617 27.6989C5.50945 27.9133 6.74026 27.6486 7.7837 26.7883C8.3033 26.3598 8.58658 25.8233 8.4718 25.1429C8.40911 24.7713 8.18059 24.6566 7.86142 24.8741C7.54129 25.0923 7.23696 25.3355 6.94828 25.5911C6.14813 26.2991 5.21728 26.4938 4.17767 26.249C3.07025 25.9883 2.07412 25.5425 1.49668 24.5366C0.865863 23.4375 1.26788 21.9323 2.44004 20.9214C2.68101 20.7136 2.95342 20.539 3.14688 20.3964C3.60673 20.7298 4.00287 21.0389 4.42356 21.3138C4.68585 21.4853 4.96818 21.4799 5.14714 21.1793C5.32782 20.8758 5.28386 20.6041 4.99299 20.3651C4.72448 20.1445 4.43299 19.9304 4.22976 19.6601C3.68562 18.9363 3.81379 17.9704 4.49923 17.3663C4.57374 17.3007 4.69173 17.2447 4.78996 17.2441C5.94483 17.2368 7.10038 17.2218 8.25449 17.2518C8.68905 17.2631 9.13926 17.3333 9.54942 17.4681C10.5538 17.798 11.1171 18.6875 10.9632 19.6011C10.8222 20.4389 9.99909 21.0667 8.9633 21.1216C8.77586 21.1315 8.58364 21.1025 8.40071 21.1319C7.95705 21.1458 8.04216 21.595 8.1205 21.6858C8.84265 22.5228 9.9796 22.7322 10.9665 22.228C13.2958 21.0381 13.4746 18.01 11.2999 16.6043C10.4936 16.0831 9.59508 15.7944 8.63456 15.7481C7.46295 15.6916 6.28574 15.7392 5.1146 15.6782C3.98093 15.6192 2.96675 15.2313 2.20331 14.3899C1.61153 13.7378 1.48581 12.9879 1.79972 12.1768C2.40292 10.6183 3.97252 9.81168 5.84031 10.1545C7.10167 10.386 8.33912 10.7449 9.60534 10.9402C10.3997 11.0626 11.2383 11.073 12.038 10.9813C13.3265 10.8337 14.0941 10.0554 14.3714 8.85055C14.6509 7.63587 14.3266 6.60857 13.2749 5.83658C12.4079 5.20016 11.3928 4.92036 10.3279 4.78159C9.16872 4.63052 8.02227 4.68028 6.89933 5.01661C6.26072 5.24733 6.19345 5.64791 6.23098 5.84732C6.25586 5.97986 6.58665 6.14365 6.78449 6.14864C7.7221 6.1723 8.66362 6.10161 9.59884 6.14974C10.5925 6.20094 11.5925 6.30628 12.3742 7.01961C12.9431 7.53894 13.1744 8.19765 12.9532 8.73065C12.7121 9.31177 12.0847 9.68535 11.2814 9.64235C10.7033 9.61146 10.1254 9.51466 9.55632 9.40508C8.34226 9.17129 7.13845 8.88726 5.92131 8.6709C5.40164 8.57862 4.85887 8.60418 4.31111 8.5754C3.76013 7.20527 3.43522 6.38113 4.86687 5.10774C6.19079 3.93004 7.75888 3.10795 9.64061 3.15245C10.2876 3.16783 10.926 3.43854 11.5724 3.57498C12.1158 3.68969 12.6639 3.78532 13.2127 3.8733C13.3128 3.8893 13.7748 3.98309 13.6502 3.77398C13.4529 3.48584 13.3264 3.20147 13.1118 3.0048C12.1372 2.11195 10.9328 1.7381 9.60657 1.6737C9.42835 1.66502 9.24946 1.67028 9.0709 1.66755C9.05402 1.66734 9.03734 1.65675 8.97158 1.63405C9.45303 0.907803 10.0489 0.323741 10.9293 0.118731C12.0993 -0.153818 13.2157 0.0626762 14.2161 0.688643C15.2248 1.31981 15.3831 1.84064 15.3956 3.12545ZM2.1273 16.0994C1.85694 15.9488 1.68754 15.9673 1.4649 16.1445C0.296703 17.0738 -0.0463925 18.3128 0.00474033 19.6919C0.0228556 20.1798 0.177279 20.6297 0.618402 20.9242C0.996088 20.6171 1.32907 20.2965 1.71318 20.0479C2.10433 19.7945 2.54579 19.6119 2.98172 19.3899C2.80016 18.4387 3.08761 17.5715 3.6256 16.7782C3.10668 16.5482 2.59501 16.3597 2.12723 16.0994M19.7003 3.21288C19.7319 2.03054 19.8544 1.49651 20.3108 1.03543C21.8132 -0.48249 24.4646 -0.304824 25.7043 1.39329C25.7561 1.46404 25.8 1.54013 25.8663 1.6426C24.0303 1.70843 22.3497 2.02514 21.3338 3.65988L21.3817 3.84938C21.7367 3.84938 22.0987 3.89196 22.4447 3.83748C22.7934 3.78245 23.1372 3.65571 23.4642 3.51756C24.7769 2.96275 26.0847 3.0184 27.3727 3.56063C28.3974 3.99197 29.3731 4.51465 30.1373 5.33831C30.8234 6.07769 31.0616 6.91037 30.6848 7.87205C30.5904 8.11281 30.5223 8.36342 30.4414 8.6117C28.3491 8.46302 26.4424 9.30329 24.438 9.56388C23.9877 9.62239 23.5158 9.6524 23.0701 9.58821C22.0815 9.44589 21.6045 8.4607 22.0814 7.60374C22.5642 6.73626 23.3819 6.33041 24.3392 6.26048C25.5268 6.17373 26.722 6.17995 27.9142 6.15849C28.1999 6.15329 28.4952 6.18692 28.5737 5.83351C28.6503 5.48863 28.5063 5.22176 28.1586 5.11225C25.9868 4.42783 23.8711 4.52695 21.89 5.68401C20.6775 6.39207 20.2555 7.56936 20.5967 8.92123C20.9233 10.215 21.7877 10.912 23.2352 11.0481C24.7705 11.1925 26.226 10.79 27.6838 10.4192C28.6412 10.1757 29.5958 9.96556 30.5913 10.1771C32.103 10.4983 33.2623 12.0303 33.0004 13.381C32.849 14.1621 32.3252 14.6825 31.6577 15.073C30.8479 15.5468 29.9614 15.7172 29.0173 15.7007C27.6684 15.6771 26.3108 15.5847 24.988 15.9623C24.1586 16.199 23.4246 16.6043 22.8363 17.2212C21.5973 18.5201 21.9114 20.7449 23.4876 21.9556C24.5153 22.745 25.7006 22.6846 26.6127 21.772C26.7244 21.6603 26.773 21.4423 26.7591 21.2811C26.7538 21.2189 26.4964 21.1526 26.3476 21.1321C26.0394 21.0898 25.7191 21.1116 25.418 21.0455C24.5311 20.8509 23.9894 20.2567 23.8911 19.4196C23.8082 18.713 24.3008 17.9306 25.0629 17.5589C25.8015 17.1987 26.5959 17.2406 27.3872 17.2466C28.2049 17.2527 29.0229 17.2366 29.8403 17.2514C29.995 17.2542 30.1869 17.3168 30.2951 17.4189C31.0393 18.1217 31.0099 19.253 30.239 19.9908C30.0889 20.1344 29.9095 20.2486 29.7459 20.3789C29.4636 20.6036 29.4411 20.8862 29.6059 21.174C29.7747 21.4692 30.0512 21.4905 30.3136 21.3144C30.7252 21.0382 31.1151 20.7313 31.5467 20.4134C32.5725 20.8416 33.492 22.2584 33.4645 23.4513C33.4377 24.6214 32.6336 25.5496 31.1945 26.071C29.8745 26.5491 28.6716 26.4471 27.64 25.414C27.4302 25.2038 27.1814 25.0252 26.9305 24.8611C26.6503 24.678 26.4429 24.7473 26.3684 25.0893C26.1988 25.8677 26.5606 26.4449 27.1526 26.8883C28.6135 27.9825 30.2067 27.9694 31.8539 27.3541C31.9986 27.3001 32.1393 27.2356 32.2803 27.1766C32.6948 27.9176 32.4102 28.9563 31.5814 29.2535C30.7403 29.555 29.8336 29.7377 28.9401 29.8321C27.3426 30.0009 25.7308 30.0361 24.1303 30.1828C23.2478 30.2636 22.4665 30.6344 21.8727 31.306C21.4853 31.7442 21.1346 32.2146 21.4232 32.8336C21.6419 33.3029 22.3961 33.591 23.0907 33.475C23.2849 33.4425 23.4598 33.299 23.6435 33.2064C23.5303 33.0431 23.4476 32.8435 23.2979 32.7236C22.8925 32.3988 22.8859 32.0599 23.3876 31.9067C24.1536 31.6728 24.9461 31.4874 25.7414 31.3882C26.7289 31.265 27.7309 31.2506 28.8654 31.1806C28.286 31.8237 27.8122 32.4032 27.2812 32.9275C26.3135 33.8829 25.239 34.6793 23.8339 34.9394C21.3731 35.395 18.8707 33.2082 19.1829 30.8643C19.49 28.5581 21.3927 26.9705 23.7658 27.0343C24.161 27.0449 24.5609 27.0645 24.9505 27.0169C25.1399 26.9938 25.3827 26.8628 25.4663 26.7103C25.5283 26.597 25.4206 26.33 25.3063 26.2008C24.5467 25.3412 23.5487 25.1253 22.5035 25.4819C21.7112 25.7523 20.9708 26.196 20.2515 26.632C19.726 26.9505 18.9109 26.7236 18.7379 26.1268C18.3725 24.8667 19.1589 23.1372 20.3983 22.4997C20.7229 22.3327 21.0675 22.2033 21.3999 22.0504C21.892 21.824 21.9315 21.4407 21.4817 21.1344C21.1277 20.8933 20.769 20.6518 20.3873 20.4576C18.4513 19.4725 18.3912 17.1412 18.7915 15.7612C18.9977 15.0503 19.6095 14.6718 20.2574 14.3853C21.5219 13.8263 22.8844 13.855 24.2328 13.772C25.568 13.69 26.9016 13.5593 28.2288 13.3958C28.5731 13.3534 28.9158 13.143 29.2114 12.9426C29.3782 12.8295 29.5156 12.5873 29.5397 12.3887C29.5607 12.2151 29.4525 11.9442 29.3115 11.8606C29.2023 11.7959 28.955 11.9567 28.7676 12.0126C28.3285 12.1435 27.8943 12.3555 27.4477 12.3851C26.0449 12.4778 24.6368 12.4897 23.2318 12.5547C21.0693 12.6547 19.8352 11.7078 19.4248 9.50318C19.294 8.80078 19.3118 8.05943 19.3592 7.34193C19.401 6.70837 19.7502 6.19383 20.3309 5.85579C20.5041 5.75496 20.6848 5.6529 20.8252 5.5155C20.9514 5.39218 21.2434 4.97731 20.6902 4.73135C20.6902 4.73135 19.6688 4.39523 19.7003 3.21288ZM34.4095 20.8713C35.6235 19.9829 34.8376 16.6832 33.2136 15.9715L31.4 16.7787C31.9616 17.573 32.199 18.461 32.0551 19.2967L34.4095 20.8713Z" fill="url(#paint0_linear_7_5088)"/>
<defs>
<linearGradient id="paint0_linear_7_5088" x1="17.4999" y1="0" x2="17.4999" y2="35" gradientUnits="userSpaceOnUse">
<stop offset="0.184" stop-color="#45A1BE"/>
<stop offset="0.679" stop-color="#E2B8E9"/>
</linearGradient>
</defs>
</svg>
