<svg width="60" height="60" viewBox="0 0 60 60" fill="none" xmlns="http://www.w3.org/2000/svg">
<circle cx="30" cy="30" r="27" fill="#45A1BE" stroke="white" stroke-width="6"/>
<path d="M29.29 32.66C29.1053 32.8463 29.0011 33.0977 29 33.36C29.0003 33.4941 29.0275 33.6267 29.08 33.75C29.1703 33.9619 29.3309 34.1362 29.5348 34.2433C29.7387 34.3505 29.9733 34.3839 30.1991 34.3381C30.4248 34.2922 30.6278 34.1699 30.7737 33.9917C30.9196 33.8135 30.9996 33.5903 31 33.36C30.9989 33.0977 30.8947 32.8463 30.71 32.66C30.617 32.5663 30.5064 32.4919 30.3846 32.4411C30.2627 32.3904 30.132 32.3642 30 32.3642C29.868 32.3642 29.7373 32.3904 29.6154 32.4411C29.4936 32.4919 29.383 32.5663 29.29 32.66ZM37.63 21.66C37.5138 21.566 37.3781 21.4993 37.2327 21.4647C37.0873 21.4301 36.9361 21.4285 36.79 21.46C35.7214 21.684 34.6183 21.6868 33.5486 21.4684C32.4789 21.25 31.4653 20.8149 30.57 20.19C30.4026 20.0739 30.2037 20.0117 30 20.0117C29.7963 20.0117 29.5974 20.0739 29.43 20.19C28.534 20.8132 27.52 21.2465 26.4503 21.4632C25.3806 21.6799 24.2779 21.6754 23.21 21.45C23.0639 21.4185 22.9127 21.4201 22.7673 21.4547C22.6219 21.4893 22.4862 21.556 22.37 21.65C22.254 21.7441 22.1605 21.863 22.0965 21.998C22.0325 22.133 21.9995 22.2806 22 22.43V29.88C21.9991 31.3138 22.3408 32.727 22.9965 34.002C23.6523 35.277 24.6032 36.3768 25.77 37.21L29.42 39.81C29.5894 39.9306 29.7921 39.9954 30 39.9954C30.2079 39.9954 30.4106 39.9306 30.58 39.81L34.23 37.21C35.3968 36.3768 36.3477 35.277 37.0035 34.002C37.6592 32.727 38.0009 31.3138 38 29.88V22.43C38.0005 22.2806 37.9675 22.133 37.9035 21.998C37.8395 21.863 37.746 21.7441 37.63 21.65V21.66ZM36 29.88C36.0008 30.9948 35.7353 32.0936 35.2257 33.085C34.716 34.0765 33.977 34.9319 33.07 35.58L30 37.77L26.93 35.58C26.023 34.9319 25.284 34.0765 24.7744 33.085C24.2647 32.0936 23.9992 30.9948 24 29.88V23.58C26.0964 23.7594 28.196 23.273 30 22.19C31.804 23.273 33.9036 23.7594 36 23.58V29.88ZM30 25.36C29.4731 25.3597 28.9553 25.4981 28.4989 25.7615C28.0425 26.0248 27.6635 26.4037 27.4 26.86C27.2805 27.0886 27.2538 27.3544 27.3257 27.6022C27.3976 27.8499 27.5623 28.0602 27.7856 28.1893C28.0089 28.3184 28.2735 28.3562 28.524 28.2948C28.7745 28.2335 28.9916 28.0777 29.13 27.86C29.2177 27.7081 29.3438 27.582 29.4956 27.4942C29.6474 27.4065 29.8197 27.3602 29.995 27.36C30.1704 27.3598 30.3427 27.4058 30.4947 27.4933C30.6467 27.5807 30.7731 27.7066 30.8611 27.8583C30.949 28.01 30.9956 28.1822 30.996 28.3575C30.9965 28.5329 30.9508 28.7053 30.8635 28.8574C30.7763 29.0096 30.6506 29.1361 30.499 29.2243C30.3475 29.3125 30.1754 29.3593 30 29.36C29.7348 29.36 29.4804 29.4654 29.2929 29.6529C29.1054 29.8404 29 30.0948 29 30.36C29 30.6252 29.1054 30.8796 29.2929 31.0671C29.4804 31.2547 29.7348 31.36 30 31.36C30.7957 31.36 31.5587 31.0439 32.1213 30.4813C32.6839 29.9187 33 29.1557 33 28.36C33 27.5644 32.6839 26.8013 32.1213 26.2387C31.5587 25.6761 30.7957 25.36 30 25.36Z" fill="white"/>
</svg>
