<svg width="23" height="24" viewBox="0 0 23 24" fill="none" xmlns="http://www.w3.org/2000/svg">
<path fill-rule="evenodd" clip-rule="evenodd" d="M8.87971 22.1471C9.24202 22.1471 9.5895 22.0045 9.84569 21.7508C10.1019 21.4971 10.2458 21.1529 10.2458 20.7941C10.2458 20.4353 10.1019 20.0912 9.84569 19.8374C9.5895 19.5837 9.24202 19.4412 8.87971 19.4412C8.5174 19.4412 8.16992 19.5837 7.91372 19.8374C7.65753 20.0912 7.5136 20.4353 7.5136 20.7941C7.5136 21.1529 7.65753 21.4971 7.91372 21.7508C8.16992 22.0045 8.5174 22.1471 8.87971 22.1471ZM8.87971 23.5C9.60434 23.5 10.2993 23.2149 10.8117 22.7075C11.3241 22.2 11.6119 21.5118 11.6119 20.7941C11.6119 20.0765 11.3241 19.3882 10.8117 18.8808C10.2993 18.3733 9.60434 18.0882 8.87971 18.0882C8.15508 18.0882 7.46013 18.3733 6.94774 18.8808C6.43535 19.3882 6.14749 20.0765 6.14749 20.7941C6.14749 21.5118 6.43535 22.2 6.94774 22.7075C7.46013 23.2149 8.15508 23.5 8.87971 23.5ZM18.4425 22.1471C18.8048 22.1471 19.1523 22.0045 19.4085 21.7508C19.6647 21.4971 19.8086 21.1529 19.8086 20.7941C19.8086 20.4353 19.6647 20.0912 19.4085 19.8374C19.1523 19.5837 18.8048 19.4412 18.4425 19.4412C18.0802 19.4412 17.7327 19.5837 17.4765 19.8374C17.2203 20.0912 17.0764 20.4353 17.0764 20.7941C17.0764 21.1529 17.2203 21.4971 17.4765 21.7508C17.7327 22.0045 18.0802 22.1471 18.4425 22.1471ZM18.4425 23.5C19.1671 23.5 19.8621 23.2149 20.3744 22.7075C20.8868 22.2 21.1747 21.5118 21.1747 20.7941C21.1747 20.0765 20.8868 19.3882 20.3744 18.8808C19.8621 18.3733 19.1671 18.0882 18.4425 18.0882C17.7178 18.0882 17.0229 18.3733 16.5105 18.8808C15.9981 19.3882 15.7103 20.0765 15.7103 20.7941C15.7103 21.5118 15.9981 22.2 16.5105 22.7075C17.0229 23.2149 17.7178 23.5 18.4425 23.5ZM0 1.17647C0 0.997059 0.0719646 0.824997 0.200062 0.698134C0.32816 0.571271 0.501897 0.5 0.683055 0.5H3.41527C3.56006 0.500096 3.70106 0.545752 3.81794 0.630378C3.93482 0.715004 4.02153 0.834222 4.06554 0.970824L8.70212 15.3824H19.1255C19.3067 15.3824 19.4804 15.4536 19.6085 15.5805C19.7366 15.7073 19.8086 15.8794 19.8086 16.0588C19.8086 16.2382 19.7366 16.4103 19.6085 16.5372C19.4804 16.664 19.3067 16.7353 19.1255 16.7353H8.20212C8.05733 16.7352 7.91633 16.6895 7.79945 16.6049C7.68257 16.5203 7.59587 16.4011 7.55185 16.2645L2.91664 1.85294H0.683055C0.501897 1.85294 0.32816 1.78167 0.200062 1.65481C0.0719646 1.52794 0 1.35588 0 1.17647Z" fill="#45A1BE"/>
<path d="M7.51293 13.3529L4.09766 3.88232H22.3175C22.423 3.88251 22.5271 3.90692 22.6216 3.95366C22.716 4.0004 22.7983 4.06818 22.8618 4.15169C22.9253 4.2352 22.9685 4.33216 22.9878 4.43496C23.0071 4.53775 23.0021 4.64359 22.9732 4.74415L20.633 12.8618C20.5923 13.0033 20.5062 13.1278 20.3876 13.2164C20.269 13.305 20.1245 13.353 19.9759 13.3529H7.51293Z" fill="#45A1BE"/>
</svg>
