<svg width="185" height="209" viewBox="0 0 185 209" fill="none" xmlns="http://www.w3.org/2000/svg">
<path d="M91.9632 18.6536C92.0784 30.4984 85.0114 23.2348 85.1078 29.8878C85.1519 32.9282 88.9028 35.6403 90.9326 39.5677C93.3438 44.2335 94.0441 50.2184 93.2683 54.9504C92.7636 58.0283 91.7411 61.1268 90.3708 63.9577C86.6484 71.6492 80.7166 75.8641 71.2527 75.1139C62.2596 74.4009 53.2003 74.476 44.1799 74.0309C40.9283 73.8704 31.373 70.667 31.0867 72.6399C30.6629 75.5639 32.3268 77.6198 34.8875 78.4096C39.3812 79.7952 44.01 81.1519 48.6768 81.5762C57.6593 82.3921 66.7463 82.2035 75.7129 83.1195C80.4585 83.6042 85.3348 84.9572 89.6325 86.9432C96.7203 90.2184 98.5705 95.9541 97.8579 104.856C97.1719 113.429 92.9735 119.306 85.247 123.258C83.5206 124.142 81.8783 125.196 80.2829 126.286C77.5785 128.134 77.7741 130.292 80.7292 131.639C82.4495 132.423 84.2225 133.102 85.9502 133.873C93.9547 137.443 99.2152 147.628 97.207 155.634C96.2025 159.638 91.0739 161.384 87.7268 158.894C82.6088 155.086 77.0755 152.121 70.4683 151.476C65.0677 150.949 60.4735 152.554 56.9758 156.546C56.2869 157.332 55.6781 158.883 56.0444 159.628C56.4719 160.498 57.9554 161.229 59.0758 161.381C61.2261 161.672 63.4454 161.581 65.6328 161.525C79.5132 161.173 88.4381 167.243 93.1503 179.772C98.6983 194.521 86.7476 206.109 74.4352 208.525C65.9154 210.196 58.6405 207.28 51.9676 202.566C45.7013 198.14 40.5678 192.66 35.776 186.389C40.364 186.59 44.6131 186.559 48.8055 187.012C54.4731 187.623 60.1036 188.572 65.7349 189.461C66.8166 189.632 67.8725 190.119 68.8656 190.6C71.6459 191.948 71.6753 193.558 69.2494 195.479C67.8505 195.962 66.0199 197.15 67.1857 198.367C68.4233 199.547 69.3572 199.654 70.5389 199.974C71.5238 200.24 72.672 200.144 73.7141 199.994C76.7464 199.557 79.6398 198.685 80.9064 195.686C82.1858 192.656 80.6063 190.161 78.7272 187.863C73.7198 181.739 66.5838 180.165 59.0211 179.609C48.3432 178.823 37.6535 178.179 26.9867 177.283C24.5767 177.08 22.1508 176.296 19.8858 175.418C14.1079 173.179 11.9927 168.146 14.1908 162.611C17.7808 163.584 21.3019 164.871 24.9462 165.457C32.9103 166.738 40.2624 165.157 46.4951 160.017C49.5989 157.458 51.291 154.252 50.6054 150.188C50.231 147.968 48.8659 147.282 46.9594 148.582C45.0472 149.885 43.2293 151.338 41.5049 152.865C36.7254 157.095 31.1651 158.258 24.9552 156.796C18.3403 155.238 12.3901 152.575 8.94088 146.566C5.1728 139.999 7.57419 131.007 14.5759 124.968C16.0152 123.727 17.6424 122.683 18.798 121.832C21.5448 123.823 23.9111 125.67 26.424 127.312C27.9908 128.337 29.6772 128.305 30.7462 126.509C31.8254 124.695 31.5629 123.072 29.8254 121.644C28.2215 120.327 26.4804 119.048 25.2664 117.433C22.0161 113.109 22.7817 107.339 26.876 103.729C27.3211 103.337 28.0259 103.003 28.6127 103C35.511 102.956 42.4134 102.866 49.3073 103.045C51.9031 103.113 54.5923 103.533 57.0423 104.337C63.0415 106.309 66.4066 111.622 65.4874 117.08C64.6451 122.085 59.7283 125.836 53.5413 126.164C52.4217 126.223 51.2734 126.05 50.1807 126.225C47.5307 126.309 48.039 128.992 48.507 129.534C52.8206 134.535 59.612 135.785 65.507 132.774C79.4205 125.665 80.4887 107.575 67.4985 99.1771C62.6822 96.0636 57.3151 94.339 51.5776 94.0621C44.5792 93.7248 37.5474 94.009 30.5518 93.6447C23.7801 93.2919 17.722 90.9747 13.1618 85.9483C9.62688 82.0523 8.87595 77.5724 10.751 72.7269C14.3541 63.4162 23.7298 58.5976 34.8867 60.6457C42.4212 62.0285 49.8128 64.1729 57.3763 65.3392C62.1212 66.0707 67.1306 66.1327 71.9072 65.5851C79.6043 64.703 84.189 60.0535 85.8452 52.8557C87.5153 45.5992 85.5782 39.462 79.296 34.8501C74.1171 31.048 68.0534 29.3765 61.6924 28.5475C54.7683 27.645 47.9202 27.9423 41.2125 29.9515C37.3979 31.3298 36.9961 33.723 37.2203 34.9142C37.3689 35.7061 39.3448 36.6846 40.5265 36.7144C46.1272 36.8557 51.7512 36.4334 57.3376 36.7209C63.2731 37.0268 69.2465 37.6561 73.9154 41.9176C77.3139 45.0201 78.6953 48.9553 77.3744 52.1394C75.9342 55.6111 72.1865 57.8429 67.3878 57.5861C63.935 57.4015 60.4829 56.8232 57.0836 56.1686C49.8316 54.7719 42.6409 53.0751 35.3705 51.7825C32.2664 51.2312 29.0243 51.3839 25.7523 51.212C22.4611 43.0268 20.5203 38.1033 29.072 30.4959C36.9802 23.4603 46.3469 18.549 57.5871 18.8149C61.4519 18.9068 65.2653 20.524 69.1265 21.3391C72.3723 22.0244 75.6463 22.5957 78.9244 23.1213C79.5222 23.2169 82.2821 23.7772 81.5377 22.5279C80.3593 20.8066 79.6035 19.1077 78.3213 17.9328C72.4997 12.5989 65.3057 10.3654 57.3837 9.98073C56.3192 9.92887 55.2506 9.96032 54.184 9.94398C54.0832 9.94275 53.9835 9.87945 53.5907 9.74387C56.4666 5.4052 60.026 1.91597 65.2845 0.691223C72.2735 -0.937004 78.9424 0.356349 84.9179 4.09592C90.9428 7.86653 91.8885 10.978 91.9632 18.6536ZM12.7077 96.1608C11.0928 95.2615 10.0809 95.3718 8.75101 96.4303C1.77303 101.982 -0.276387 109.384 0.0290446 117.623C0.137252 120.538 1.05967 123.225 3.69464 124.985C5.95067 123.15 7.93965 121.235 10.2341 119.749C12.5705 118.236 15.2075 117.145 17.8115 115.818C16.7269 110.136 18.444 104.955 21.6575 100.216C18.5579 98.8418 15.502 97.7159 12.7077 96.1608Z" fill="url(#paint0_linear_296_2880)"/>
<path d="M114.278 28.0624L113.722 200.389M142.12 65.8101V28.0624C142.12 15.8249 154.155 5.75049 166.393 5.75049M114.278 122.625H172.461" stroke="url(#paint1_linear_296_2880)" stroke-width="4" stroke-linecap="round" stroke-linejoin="round"/>
<path d="M113.778 178.25H137.9C146.586 179.202 169.778 176.155 169.778 199" stroke="url(#paint2_linear_296_2880)" stroke-width="4"/>
<path d="M114.278 66.8809H171.748" stroke="#6BA7C8" stroke-width="4"/>
<rect x="171.391" y="115.783" width="12.8503" height="12.8503" rx="6.42513" fill="#9BAED6"/>
<rect x="171.391" y="60.0989" width="12.8503" height="12.8503" rx="6.42513" fill="#72A8CA"/>
<rect x="163.778" width="12.85" height="12.85" rx="6.425" fill="#45A1BE"/>
<rect x="163.778" y="195" width="12.85" height="12.85" rx="6.425" fill="#D9B7E6"/>
<rect x="108" y="195" width="12.85" height="12.85" rx="6.425" fill="#D9B7E6"/>
<rect x="108" y="19" width="12.85" height="12.85" rx="6.425" fill="#45A1BE"/>
<defs>
<linearGradient id="paint0_linear_296_2880" x1="104.533" y1="-0.0180664" x2="104.533" y2="209.074" gradientUnits="userSpaceOnUse">
<stop offset="0.184" stop-color="#45A1BE"/>
<stop offset="0.679" stop-color="#E2B8E9"/>
</linearGradient>
<linearGradient id="paint1_linear_296_2880" x1="87.7304" y1="0.0849611" x2="87.7304" y2="222.677" gradientUnits="userSpaceOnUse">
<stop stop-color="#45A1BE"/>
<stop offset="1" stop-color="#E2B8E9"/>
</linearGradient>
<linearGradient id="paint2_linear_296_2880" x1="137.721" y1="178.25" x2="137.721" y2="201.095" gradientUnits="userSpaceOnUse">
<stop stop-color="#C6B4E1"/>
<stop offset="1" stop-color="#E2B8E9"/>
</linearGradient>
</defs>
</svg>
