<svg width="20" height="20" viewBox="0 0 20 20" fill="none" xmlns="http://www.w3.org/2000/svg">
<path d="M14.45 4.55003C14.2522 4.55003 14.0588 4.60868 13.8944 4.71856C13.7299 4.82844 13.6018 4.98462 13.5261 5.16735C13.4504 5.35007 13.4306 5.55114 13.4692 5.74512C13.5078 5.9391 13.603 6.11728 13.7429 6.25714C13.8827 6.39699 14.0609 6.49223 14.2549 6.53082C14.4489 6.5694 14.6499 6.5496 14.8326 6.47391C15.0154 6.39822 15.1715 6.27005 15.2814 6.1056C15.3913 5.94115 15.45 5.74781 15.45 5.55003C15.45 5.28481 15.3446 5.03046 15.1571 4.84292C14.9695 4.65539 14.7152 4.55003 14.45 4.55003ZM18.2833 6.5667C18.2671 5.87528 18.1376 5.1912 17.9 4.5417C17.6881 3.98597 17.3583 3.48276 16.9333 3.0667C16.5206 2.63955 16.0163 2.31184 15.4583 2.10836C14.8105 1.8635 14.1257 1.73104 13.4333 1.7167C12.55 1.6667 12.2666 1.6667 9.99996 1.6667C7.73329 1.6667 7.44996 1.6667 6.56663 1.7167C5.87425 1.73104 5.18941 1.8635 4.54163 2.10836C3.98469 2.3139 3.48074 2.64133 3.06663 3.0667C2.63948 3.47935 2.31177 3.98373 2.10829 4.5417C1.86343 5.18948 1.73097 5.87432 1.71663 6.5667C1.66663 7.45003 1.66663 7.73336 1.66663 10C1.66663 12.2667 1.66663 12.55 1.71663 13.4334C1.73097 14.1257 1.86343 14.8106 2.10829 15.4584C2.31177 16.0163 2.63948 16.5207 3.06663 16.9334C3.48074 17.3587 3.98469 17.6862 4.54163 17.8917C5.18941 18.1366 5.87425 18.269 6.56663 18.2834C7.44996 18.3334 7.73329 18.3334 9.99996 18.3334C12.2666 18.3334 12.55 18.3334 13.4333 18.2834C14.1257 18.269 14.8105 18.1366 15.4583 17.8917C16.0163 17.6882 16.5206 17.3605 16.9333 16.9334C17.3602 16.5188 17.6902 16.0152 17.9 15.4584C18.1376 14.8089 18.2671 14.1248 18.2833 13.4334C18.2833 12.55 18.3333 12.2667 18.3333 10C18.3333 7.73336 18.3333 7.45003 18.2833 6.5667ZM16.7833 13.3334C16.7772 13.8623 16.6814 14.3865 16.5 14.8834C16.3669 15.246 16.1532 15.5737 15.875 15.8417C15.6047 16.1171 15.2776 16.3304 14.9166 16.4667C14.4197 16.6482 13.8956 16.744 13.3666 16.75C12.5333 16.7917 12.225 16.8 10.0333 16.8C7.84163 16.8 7.53329 16.8 6.69996 16.75C6.1507 16.7603 5.60379 16.6757 5.08329 16.5C4.73811 16.3568 4.42609 16.144 4.16663 15.875C3.89003 15.6073 3.679 15.2794 3.54996 14.9167C3.34651 14.4127 3.23366 13.8766 3.21663 13.3334C3.21663 12.5 3.16663 12.1917 3.16663 10C3.16663 7.80836 3.16663 7.50003 3.21663 6.6667C3.22036 6.12591 3.31908 5.58999 3.50829 5.08336C3.655 4.73162 3.88018 4.41808 4.16663 4.1667C4.4198 3.88017 4.7327 3.65261 5.08329 3.50003C5.59125 3.31673 6.12662 3.22093 6.66663 3.2167C7.49996 3.2167 7.80829 3.1667 9.99996 3.1667C12.1916 3.1667 12.5 3.1667 13.3333 3.2167C13.8623 3.22276 14.3864 3.31857 14.8833 3.50003C15.262 3.64057 15.6019 3.86907 15.875 4.1667C16.148 4.42268 16.3614 4.73564 16.5 5.08336C16.6852 5.59081 16.781 6.12651 16.7833 6.6667C16.825 7.50003 16.8333 7.80836 16.8333 10C16.8333 12.1917 16.825 12.5 16.7833 13.3334ZM9.99996 5.72503C9.1548 5.72668 8.32909 5.9788 7.62717 6.44955C6.92525 6.92029 6.37861 7.58853 6.05632 8.36983C5.73403 9.15112 5.65056 10.0104 5.81645 10.8391C5.98235 11.6679 6.39016 12.4288 6.98836 13.0258C7.58656 13.6229 8.3483 14.0292 9.17734 14.1935C10.0064 14.3578 10.8655 14.2726 11.6462 13.9488C12.4269 13.625 13.094 13.0771 13.5634 12.3742C14.0328 11.6714 14.2833 10.8452 14.2833 10C14.2844 9.43762 14.1743 8.88054 13.9593 8.36083C13.7444 7.84112 13.4288 7.36904 13.0307 6.97174C12.6326 6.57444 12.1599 6.25976 11.6398 6.04581C11.1197 5.83185 10.5624 5.72283 9.99996 5.72503ZM9.99996 12.775C9.45112 12.775 8.9146 12.6123 8.45825 12.3074C8.00191 12.0024 7.64623 11.569 7.43619 11.062C7.22616 10.5549 7.17121 9.99695 7.27828 9.45866C7.38535 8.92036 7.64965 8.4259 8.03774 8.03781C8.42583 7.64972 8.92029 7.38543 9.45858 7.27835C9.99688 7.17128 10.5548 7.22623 11.0619 7.43627C11.569 7.6463 12.0024 8.00198 12.3073 8.45832C12.6122 8.91467 12.775 9.45119 12.775 10C12.775 10.3644 12.7032 10.7253 12.5637 11.062C12.4243 11.3987 12.2199 11.7046 11.9622 11.9623C11.7045 12.2199 11.3986 12.4243 11.0619 12.5638C10.7252 12.7033 10.3644 12.775 9.99996 12.775Z" fill="#556987"/>
</svg>
