<svg width="31" height="31" fill="currentColor" viewBox="0 0 31 31" xmlns="http://www.w3.org/2000/svg">
<path d="M11.7228 16.9582H15.2519C15.4438 16.9593 15.6341 16.9225 15.8118 16.8499C15.9895 16.7773 16.1511 16.6704 16.2873 16.5353L21.5082 11.3144C21.7798 11.0412 21.9322 10.6716 21.9322 10.2863C21.9322 9.90103 21.7798 9.53141 21.5082 9.25817L17.979 5.75817C17.7058 5.48656 17.3361 5.3341 16.9509 5.3341C16.5656 5.3341 16.196 5.48656 15.9228 5.75817L10.7019 10.979C10.4271 11.2483 10.2699 11.6152 10.2644 11.9998V15.4998C10.2644 15.8866 10.4181 16.2575 10.6916 16.531C10.965 16.8045 11.336 16.9582 11.7228 16.9582ZM13.1811 12.5832L16.9582 8.84984L18.4165 10.3082L14.654 14.0415H13.1957L13.1811 12.5832ZM28.6248 18.4165H27.1665V3.83317H28.6248C29.0116 3.83317 29.3825 3.67953 29.656 3.40603C29.9295 3.13254 30.0832 2.76161 30.0832 2.37484C30.0832 1.98806 29.9295 1.61713 29.656 1.34364C29.3825 1.07015 29.0116 0.916504 28.6248 0.916504H2.37484C1.98806 0.916504 1.61713 1.07015 1.34364 1.34364C1.07015 1.61713 0.916504 1.98806 0.916504 2.37484C0.916504 2.76161 1.07015 3.13254 1.34364 3.40603C1.61713 3.67953 1.98806 3.83317 2.37484 3.83317H3.83317V18.4165H2.37484C1.98806 18.4165 1.61713 18.5702 1.34364 18.8436C1.07015 19.1171 0.916504 19.4881 0.916504 19.8748C0.916504 20.2616 1.07015 20.6325 1.34364 20.906C1.61713 21.1795 1.98806 21.3332 2.37484 21.3332H14.0415V23.0103L7.40609 27.3853C7.13387 27.5538 6.92466 27.8072 6.81075 28.1064C6.69684 28.4056 6.68455 28.7339 6.77579 29.0408C6.86702 29.3477 7.05671 29.616 7.31557 29.8044C7.57444 29.9928 7.88811 30.0908 8.20817 30.0832C8.49488 30.0865 8.7754 29.9997 9.01025 29.8353L14.0415 26.5103V28.6248C14.0415 29.0116 14.1951 29.3825 14.4686 29.656C14.7421 29.9295 15.1131 30.0832 15.4998 30.0832C15.8866 30.0832 16.2575 29.9295 16.531 29.656C16.8045 29.3825 16.9582 29.0116 16.9582 28.6248V26.5103L21.9894 29.8353C22.2243 29.9997 22.5048 30.0865 22.7915 30.0832C23.1031 30.0808 23.4057 29.9786 23.655 29.7917C23.9043 29.6049 24.0872 29.343 24.1769 29.0446C24.2665 28.7462 24.2583 28.427 24.1533 28.1336C24.0484 27.8402 23.8522 27.5882 23.5936 27.4144L16.9582 23.0394V21.3332H28.6248C29.0116 21.3332 29.3825 21.1795 29.656 20.906C29.9295 20.6325 30.0832 20.2616 30.0832 19.8748C30.0832 19.4881 29.9295 19.1171 29.656 18.8436C29.3825 18.5702 29.0116 18.4165 28.6248 18.4165ZM24.2498 18.4165H6.74984V3.83317H24.2498V18.4165Z" />
</svg>
