<svg width="35" height="35" viewBox="0 0 35 35" fill="none" xmlns="http://www.w3.org/2000/svg">
    <path d="M13.723 18.958h3.529a1.458 1.458 0 0 0 1.035-.423l5.221-5.22a1.458 1.458 0 0 0 0-2.057l-3.529-3.5a1.458 1.458 0 0 0-2.056 0l-5.221 5.221c-.275.27-.432.636-.438 1.021v3.5a1.458 1.458 0 0 0 1.459 1.458zm1.458-4.375 3.777-3.733 1.459 1.458-3.763 3.734h-1.458l-.015-1.459zm15.444 5.834h-1.459V5.833h1.459a1.458 1.458 0 1 0 0-2.916H4.375a1.458 1.458 0 1 0 0 2.916h1.458v14.584H4.375a1.458 1.458 0 1 0 0 2.916H16.04v1.677l-6.635 4.375a1.459 1.459 0 0 0 .802 2.698c.287.004.567-.083.802-.248l5.031-3.325v2.115a1.458 1.458 0 1 0 2.917 0V28.51l5.031 3.325c.235.165.516.252.802.248a1.458 1.458 0 0 0 .803-2.668l-6.636-4.375v-1.707h11.667a1.458 1.458 0 0 0 0-2.916zm-4.375 0H8.75V5.833h17.5v14.584z" fill="#625B71"/>
</svg>
