<svg width="18" height="17" viewBox="0 0 18 17" fill="none" xmlns="http://www.w3.org/2000/svg">
<g clip-path="url(#clip0_7_5405)">
<g clip-path="url(#clip1_7_5405)">
<g clip-path="url(#clip2_7_5405)">
<path d="M17.5277 11.7679C17.5277 9.50844 15.9324 7.76681 13.4456 7.86094C13.6802 4.70716 16.1201 1.977 17.7623 0.706076L17.2931 0C13.8678 2.16529 9.5511 6.6371 9.5511 11.2501C9.5511 13.8861 11.0526 15.816 13.4925 15.816C15.9324 15.816 17.5277 13.9332 17.5277 11.7679ZM7.9844 11.7679C7.9844 9.50844 6.38908 7.76681 3.90226 7.86094C4.13687 4.70716 6.57675 1.977 8.21898 0.706076L7.74979 0C4.32454 2.16529 0.0078125 6.6371 0.0078125 11.2501C0.0078125 13.8861 1.50928 15.816 3.94917 15.816C6.38908 15.816 7.9844 13.9332 7.9844 11.7679Z" fill="#1C1D1F"/>
</g>
</g>
</g>
<defs>
<clipPath id="clip0_7_5405">
<rect width="17.77" height="16.09" fill="white"/>
</clipPath>
<clipPath id="clip1_7_5405">
<rect width="17.77" height="16.09" fill="white"/>
</clipPath>
<clipPath id="clip2_7_5405">
<rect width="17.7545" height="16.09" fill="white" transform="translate(0.0078125)"/>
</clipPath>
</defs>
</svg>
