<svg width="24" height="24" viewBox="0 0 24 24" fill="none" xmlns="http://www.w3.org/2000/svg">
<path d="M11.673 7.22198C10.797 7.22198 9.44101 6.22598 8.01301 6.26198C6.12901 6.28598 4.40101 7.35397 3.42901 9.04597C1.47301 12.442 2.92501 17.458 4.83301 20.218C5.76901 21.562 6.87301 23.074 8.33701 23.026C9.74101 22.966 10.269 22.114 11.973 22.114C13.665 22.114 14.145 23.026 15.633 22.99C17.145 22.966 18.105 21.622 19.029 20.266C20.097 18.706 20.541 17.194 20.565 17.11C20.529 17.098 17.625 15.982 17.589 12.622C17.565 9.81397 19.881 8.46998 19.989 8.40998C18.669 6.47798 16.641 6.26198 15.933 6.21398C14.085 6.06998 12.537 7.22198 11.673 7.22198ZM14.793 4.38998C15.573 3.45398 16.089 2.14598 15.945 0.849976C14.829 0.897976 13.485 1.59398 12.681 2.52998C11.961 3.35798 11.337 4.68998 11.505 5.96198C12.741 6.05798 14.013 5.32598 14.793 4.38998Z" fill="#45A1BE"/>
</svg>
