<svg width="20" height="20" viewBox="0 0 20 20" fill="none" xmlns="http://www.w3.org/2000/svg">
<path d="M12.3583 9.40836L8.82495 5.87503C8.74748 5.79692 8.65532 5.73493 8.55377 5.69262C8.45222 5.65031 8.3433 5.62853 8.23329 5.62853C8.12328 5.62853 8.01435 5.65031 7.91281 5.69262C7.81126 5.73493 7.71909 5.79692 7.64162 5.87503C7.48641 6.03117 7.39929 6.24238 7.39929 6.46253C7.39929 6.68269 7.48641 6.8939 7.64162 7.05003L10.5916 10L7.64162 12.95C7.48641 13.1062 7.39929 13.3174 7.39929 13.5375C7.39929 13.7577 7.48641 13.9689 7.64162 14.125C7.71949 14.2023 7.81183 14.2634 7.91336 14.3048C8.01489 14.3463 8.12361 14.3673 8.23329 14.3667C8.34296 14.3673 8.45168 14.3463 8.55321 14.3048C8.65474 14.2634 8.74709 14.2023 8.82495 14.125L12.3583 10.5917C12.4364 10.5142 12.4984 10.4221 12.5407 10.3205C12.583 10.219 12.6048 10.11 12.6048 10C12.6048 9.89002 12.583 9.7811 12.5407 9.67955C12.4984 9.578 12.4364 9.48583 12.3583 9.40836Z" fill="#F0FDF4"/>
</svg>
