<svg width="17" height="17" viewBox="0 0 17 17" fill="none" xmlns="http://www.w3.org/2000/svg">
<path d="M15.3065 6.9533C15.3731 6.61997 15.1065 6.21997 14.7731 6.21997L10.9731 5.68664L9.23981 2.21997C9.17314 2.08664 9.10648 2.01997 8.97314 1.9533C8.63981 1.7533 8.23981 1.88664 8.03981 2.21997L6.37314 5.68664L2.57314 6.21997C2.37314 6.21997 2.23981 6.28664 2.17314 6.41997C1.90648 6.68664 1.90648 7.08664 2.17314 7.3533L4.90648 10.02L4.23981 13.82C4.23981 13.9533 4.23981 14.0866 4.30648 14.22C4.50648 14.5533 4.90648 14.6866 5.23981 14.4866L8.63981 12.6866L12.0398 14.4866C12.1065 14.5533 12.2398 14.5533 12.3731 14.5533C12.4398 14.5533 12.4398 14.5533 12.5065 14.5533C12.8398 14.4866 13.1065 14.1533 13.0398 13.7533L12.3731 9.9533L15.1065 7.28664C15.2398 7.21997 15.3065 7.08664 15.3065 6.9533Z" fill="#F4624D"/>
</svg>
