<svg width="31" height="30" viewBox="0 0 31 30" fill="none" xmlns="http://www.w3.org/2000/svg">
<path fill-rule="evenodd" clip-rule="evenodd" d="M1.41016 5.34C1.41016 4.041 2.45116 3 3.75016 3H9.45016C10.2512 3 11.0102 3.321 11.5712 3.879L11.5772 3.8865L13.3577 5.712C13.5479 5.89818 13.804 6.00169 14.0702 6H27.5702C28.8692 6 29.9102 7.041 29.9102 8.34V27H1.41016V5.34ZM3.75016 4.5C3.63951 4.4988 3.52974 4.5197 3.42728 4.56149C3.32482 4.60327 3.23174 4.6651 3.1535 4.74335C3.07526 4.82159 3.01343 4.91467 2.97164 5.01713C2.92986 5.11958 2.90895 5.22935 2.91016 5.34V25.5H28.4102V8.34C28.4114 8.22935 28.3905 8.11958 28.3487 8.01713C28.3069 7.91467 28.2451 7.82159 28.1668 7.74335C28.0886 7.6651 27.9955 7.60327 27.893 7.56149C27.7906 7.5197 27.6808 7.4988 27.5702 7.5H14.0702C13.4132 7.5 12.7697 7.245 12.2942 6.771L12.2882 6.7635L10.5062 4.938C10.226 4.65805 9.84624 4.50055 9.45016 4.5H3.75016Z" fill="white"/>
<path fill-rule="evenodd" clip-rule="evenodd" d="M29.1602 12H2.16016V10.5H29.1602V12Z" fill="white"/>
</svg>
