<svg width="20" height="20" viewBox="0 0 20 20" fill="none" xmlns="http://www.w3.org/2000/svg">
<path d="M18.3333 4.83336C17.7069 5.10511 17.0445 5.28475 16.3666 5.3667C17.0818 4.93946 17.6177 4.26735 17.875 3.47503C17.2029 3.87508 16.4673 4.15694 15.7 4.30836C15.1871 3.75217 14.5041 3.38194 13.7581 3.25574C13.0122 3.12954 12.2454 3.2545 11.5781 3.61102C10.9108 3.96755 10.3807 4.53547 10.071 5.22573C9.76125 5.91598 9.68937 6.68952 9.86663 7.42503C8.50782 7.3563 7.17866 7.00249 5.96551 6.38658C4.75235 5.77067 3.68233 4.90644 2.82496 3.85003C2.52424 4.37517 2.36623 4.96988 2.36663 5.57503C2.36556 6.13702 2.50347 6.69054 2.76809 7.18633C3.0327 7.68212 3.41581 8.10479 3.88329 8.4167C3.33994 8.40191 2.8082 8.25611 2.33329 7.9917V8.03336C2.33737 8.82077 2.61329 9.58261 3.11439 10.19C3.61549 10.7974 4.31101 11.2131 5.08329 11.3667C4.78601 11.4572 4.47736 11.5049 4.16663 11.5084C3.95153 11.5059 3.73698 11.4863 3.52496 11.45C3.74488 12.1274 4.17048 12.7193 4.74252 13.1435C5.31457 13.5677 6.00461 13.803 6.71663 13.8167C5.5143 14.7628 4.02986 15.2791 2.49996 15.2834C2.22141 15.2843 1.94307 15.2676 1.66663 15.2334C3.22865 16.2419 5.04897 16.7773 6.90829 16.775C8.19137 16.7884 9.46424 16.5459 10.6526 16.0618C11.8409 15.5776 12.9208 14.8616 13.8293 13.9554C14.7378 13.0493 15.4566 11.9712 15.9438 10.7841C16.4309 9.59705 16.6767 8.3248 16.6666 7.0417C16.6666 6.90003 16.6666 6.75003 16.6666 6.60003C17.3205 6.11237 17.8845 5.51455 18.3333 4.83336Z" fill="#556987"/>
</svg>
