<svg width="24" height="24" viewBox="0 0 24 24" fill="none" xmlns="http://www.w3.org/2000/svg">
<path d="M11.9564 24V22.5H21.576C21.8063 22.5 22.018 22.404 22.2113 22.212C22.4035 22.019 22.4996 21.8075 22.4996 21.5775V2.4225C22.4996 2.1925 22.4035 1.981 22.2113 1.788C22.018 1.596 21.8063 1.5 21.576 1.5H11.9564V0H21.5745C22.2653 0 22.8421 0.2315 23.3046 0.6945C23.7682 1.1565 24 1.7325 24 2.4225V21.5775C24 22.2675 23.7687 22.8435 23.3061 23.3055C22.8426 23.7685 22.2653 24 21.5745 24H11.9564ZM10.8901 17.307L9.83429 16.2285L13.3186 12.75H0V11.25H13.3186L9.83429 7.77L10.8886 6.693L16.2038 12L10.8901 17.307Z" fill="#45A1BE"/>
</svg>
